<svg width="451" height="155" viewBox="0 0 451 155" fill="none" xmlns="http://www.w3.org/2000/svg">
    <path
        d="M440.5 75.5H414.4C411.9 69.1 409 64.1 394.4 64.1C384.3 64.1 380 68.3 380 72.4C380 77 383.6 80.8 394.7 83.3L418.3 89.6C433.8 93.7 441.3 106 441.3 119C441.3 126.2 439.7 134.9 432.9 142.1C427.8 147.4 420 154.5 394.4 154.5C359.1 154.5 347.5 132.2 347.5 118.7H374.9C377.6 128.5 384.4 132.3 397.7 132.3C407 132.3 414.9 129 414.9 121.9C414.9 115.2 409.1 112.6 401.7 110.6L383 105.6C374 102.9 366.5 100.7 361.2 96.2C347.3 84.4 348.3 63.1 363.4 52.1C371.8 46 380.4 42.8 394 42.8C410 42.8 419.1 47.4 426.3 52.3C432.7 56.6 440.3 67.3 440.3 75.7M0 0.100006C0.2 1.00001 54.6 153.2 54.6 153.2H87L137 26.6H447.5L449.9 0.100006H113.2L71.7 105L34.4 0L0 0.100006ZM268.4 98.4L308.9 153.1H334.3V44.9H305.1V103.7L268.4 44.9H240.4V153.1H268.4V98.4ZM450.8 147.5C450.8 144.3 448.2 141.7 445 141.7C441.8 141.7 439.2 144.3 439.2 147.5C439.2 150.7 441.8 153.3 445 153.3C448.3 153.3 450.9 150.8 450.8 147.5C450.9 147.5 450.9 147.5 450.8 147.5ZM450.2 147.5C450.2 150.3 447.9 152.6 445.1 152.6C442.3 152.6 440 150.3 440 147.5C440 144.7 442.3 142.4 445.1 142.4C447.9 142.4 450.2 144.6 450.2 147.4V147.5ZM447.8 146.3C447.8 145.2 446.9 144.2 445.7 144.3C445.6 144.3 445.5 144.3 445.4 144.3H442.7V150.4H444.1V148.4H445.2L446.5 150.4H448.1L446.7 148.2C447.4 147.9 447.9 147.2 447.8 146.3ZM446.5 146.4C446.5 146.9 446.1 147.3 445.6 147.3C445.5 147.3 445.5 147.3 445.4 147.3H444V145.5H445.3C445.8 145.4 446.3 145.6 446.4 146.1C446.5 146.2 446.5 146.3 446.5 146.4ZM113.9 153.1H145L150.8 136.2H192L198 153.1H228.6L189.4 44.9H156.4L113.9 153.1ZM159.5 116.6L171.6 80.6L183.5 116.6H159.5Z"
        fill="black" />
</svg>