<svg width="84" height="90" viewBox="0 0 84 90" fill="none" xmlns="http://www.w3.org/2000/svg">
    <path fill-rule="evenodd" clip-rule="evenodd"
        d="M17.5359 23.4339V28.1292C17.5359 29.4183 18.0633 30.594 18.9187 31.4456C19.7703 32.2972 20.946 32.8284 22.2351 32.8284H22.9226C24.2117 32.8284 25.3874 32.3011 26.239 31.4456C27.0906 30.5941 27.6218 29.4183 27.6218 28.1292V23.4339H17.5359ZM14.8093 28.1292V23.4339H4.73134V28.1292C4.73134 29.4183 5.25868 30.594 6.11414 31.4456C6.5243 31.8558 7.00476 32.1878 7.53994 32.4261L7.55556 32.4339C8.12978 32.6878 8.76646 32.8284 9.43056 32.8284H10.1181C11.4072 32.8284 12.5829 32.3011 13.4345 31.4456C14.286 30.5941 14.8173 29.4183 14.8173 28.1292L14.8093 28.1292ZM16.1726 32.4065C16.4187 32.7503 16.6922 33.0745 16.989 33.3753C18.3328 34.7191 20.1883 35.555 22.2313 35.555H22.9188C24.9618 35.555 26.8172 34.719 28.161 33.3753C28.4578 33.0784 28.7313 32.7542 28.9774 32.4065C29.2235 32.7503 29.4969 33.0745 29.7938 33.3753C31.1376 34.7191 32.993 35.555 35.036 35.555H35.7235C37.7665 35.555 39.6219 34.719 40.9657 33.3753C41.2625 33.0784 41.536 32.7542 41.7821 32.4065C42.0282 32.7503 42.3016 33.0745 42.5985 33.3753C43.9423 34.7191 45.7977 35.555 47.8407 35.555H48.5282C50.5712 35.555 52.4266 34.719 53.7704 33.3753C54.0673 33.0784 54.3407 32.7542 54.5868 32.4065C54.8329 32.7503 55.1063 33.0745 55.4032 33.3753C56.747 34.7191 58.6024 35.555 60.6454 35.555H61.3329C63.3759 35.555 65.2313 34.719 66.5751 33.3753C66.872 33.0784 67.1454 32.7542 67.3915 32.4065C67.6376 32.7503 67.9111 33.0745 68.2079 33.3753C69.5517 34.7191 71.4071 35.555 73.4501 35.555H74.1376C74.5048 35.555 74.8642 35.5276 75.2157 35.4769V75.3599H68.5712V46.3519C68.5712 45.3831 68.1767 44.5003 67.54 43.8636C66.9033 43.2268 66.0205 42.8324 65.0517 42.8324H49.0127C48.044 42.8324 47.1611 43.2269 46.5244 43.8636C45.8877 44.5003 45.4932 45.3831 45.4932 46.3519V75.3599H8.34823V35.4769C8.69979 35.5276 9.05917 35.555 9.42633 35.555H10.1138C12.1568 35.555 14.0122 34.719 15.356 33.3753C15.6529 33.0784 15.9265 32.7542 16.1726 32.4065ZM5.62164 34.5003C5.0982 34.1839 4.61384 33.805 4.18024 33.3753C2.83644 32.0315 2.00054 30.1761 2.00054 28.1331V22.0706C2.00054 21.8441 2.05523 21.6331 2.15288 21.4495L7.63338 8.60154V2.84764C7.63338 2.06248 7.95369 1.35154 8.46932 0.83594C8.98495 0.32034 9.69592 0 10.481 0H73.094C73.8792 0 74.5901 0.32031 75.1057 0.83594C75.6214 1.35156 75.9417 2.06254 75.9417 2.84764V8.60154L81.4222 21.4495C81.5198 21.637 81.5706 21.848 81.5706 22.0706V28.1331C81.5706 30.1761 80.7347 32.0315 79.3909 33.3753C78.9612 33.805 78.4768 34.1839 77.9495 34.5003V75.3593H79.0081C79.762 75.3593 80.3714 75.9687 80.3714 76.7226V81.3124H82.2073C82.9612 81.3124 83.5706 81.9218 83.5706 82.6757V88.6288C83.5706 89.3827 82.9612 89.9921 82.2073 89.9921L1.3633 89.996C0.60939 89.996 0 89.3867 0 88.6327V82.6796C0 81.9257 0.60938 81.3163 1.3633 81.3163H3.1992V76.7265C3.1992 75.9726 3.80858 75.3632 4.5625 75.3632H5.6211L5.62164 34.5003ZM5.42633 20.7073H78.1493L73.6845 10.2343H9.89153L5.42633 20.7073ZM78.8443 23.4339H68.7663V28.1292C68.7663 29.4183 69.2937 30.594 70.1491 31.4456C71.0007 32.2972 72.1764 32.8284 73.4655 32.8284H74.153C74.8171 32.8284 75.4538 32.6878 76.028 32.4339L76.0397 32.4261C76.5749 32.1878 77.0593 31.8558 77.4695 31.4456C78.321 30.5941 78.8522 29.4183 78.8522 28.1292V23.4339L78.8443 23.4339ZM66.0353 23.4339H55.9573V28.1292C55.9573 29.4183 56.4847 30.594 57.3401 31.4456C58.1917 32.2972 59.3674 32.8284 60.6565 32.8284H61.344C62.6331 32.8284 63.8088 32.3011 64.6604 31.4456C65.512 30.5941 66.0432 29.4183 66.0432 28.1292V23.4339H66.0353ZM53.2263 23.4339H43.1483V28.1292C43.1483 29.4183 43.6757 30.594 44.5311 31.4456C45.3827 32.2972 46.5584 32.8284 47.8475 32.8284H48.535C49.8241 32.8284 50.9998 32.3011 51.8514 31.4456C52.703 30.5941 53.2342 29.4183 53.2342 28.1292V23.4339H53.2263ZM40.4173 23.4339H30.3393V28.1292C30.3393 29.4183 30.8667 30.594 31.7221 31.4456C32.5737 32.2972 33.7494 32.8284 35.0385 32.8284H35.726C37.0151 32.8284 38.1908 32.3011 39.0424 31.4456C39.894 30.5941 40.4252 29.4183 40.4252 28.1292V23.4339H40.4173ZM17.7143 59.5709H33.2413V50.5592C33.2413 48.4264 32.3663 46.485 30.9601 45.0787C29.5539 43.6724 27.6124 42.7975 25.4796 42.7975C23.3468 42.7975 21.4054 43.6725 19.9991 45.0787C18.5928 46.4849 17.7179 48.4264 17.7179 50.5592V59.5709H17.7143ZM33.2413 62.2975H17.7143V64.4694H33.2413V62.2975ZM50.5303 59.5827V61.3366C50.5303 62.0905 51.1397 62.6999 51.8936 62.6999C52.6476 62.6999 53.2569 62.0905 53.2569 61.3366V59.5827C53.2569 58.8288 52.6476 58.2194 51.8936 58.2194C51.1397 58.2194 50.5303 58.8288 50.5303 59.5827ZM48.2256 46.3527V75.3607H65.8506V46.3527C65.8506 46.134 65.7608 45.9387 65.6162 45.7941C65.4717 45.6496 65.2725 45.5598 65.0577 45.5598H49.0187C48.7999 45.5598 48.6046 45.6496 48.4601 45.7941C48.3155 45.9387 48.2256 46.1379 48.2256 46.3527ZM5.92063 78.0867V81.3133H77.6436V78.0867H5.92063ZM73.0926 2.72373H10.4756C10.4444 2.72373 10.4131 2.73936 10.3897 2.75889C10.3663 2.78232 10.3545 2.81357 10.3545 2.84482V7.50502H73.2095V2.84482C73.2095 2.81357 73.1939 2.78232 73.1744 2.75889C73.1509 2.73545 73.1197 2.72373 73.0884 2.72373H73.0926ZM25.4796 40.0677C22.5929 40.0677 19.9718 41.2474 18.0694 43.1497C16.167 45.052 14.9874 47.6731 14.9874 50.5599V65.8299C14.9874 66.5838 15.5968 67.1932 16.3507 67.1932H34.6047C35.3586 67.1932 35.968 66.5839 35.968 65.8299V50.5599C35.968 47.6732 34.7883 45.0521 32.886 43.1497C30.9837 41.2474 28.3626 40.0677 25.4758 40.0677H25.4796ZM2.72563 87.2707H80.8426V84.0441H2.72563V87.2707Z"
        fill="white" />
</svg>