<svg width="90" height="86" viewBox="0 0 90 86" fill="none" xmlns="http://www.w3.org/2000/svg">
    <path
        d="M74.6083 65.0154C71.5497 63.2537 68.7255 61.117 66.1942 58.6638C60.745 53.4216 52.1242 53.4216 46.6742 58.6638C44.143 61.1169 41.3187 63.2536 38.264 65.0154C35.9085 66.1716 29.5726 71.0857 31.2835 78.2424C33.2015 86.2502 39.4788 85.4651 47.4245 84.469L47.5964 84.4378C53.4323 83.2855 59.4444 83.2855 65.2804 84.4417C67.6554 85.0393 70.0851 85.3831 72.5304 85.4612C76.7609 85.4612 80.2413 83.8518 81.5851 78.2424C83.296 71.0862 76.9599 66.1724 74.6083 65.0154ZM78.2489 77.4414C77.245 81.6328 75.245 83.1523 66.0339 81.0898C62.9675 80.4258 59.8347 80.0976 56.698 80.1133C53.4128 80.1055 50.1394 80.4258 46.9168 81.0742C37.9246 82.1992 35.7098 81.9883 34.6238 77.4453C33.2488 71.7031 39.7097 68.1328 39.7761 68.0976C43.1316 66.1914 46.2331 63.8671 49.0066 61.1796C50.9754 59.2851 53.5886 58.203 56.323 58.1601L56.4324 58.1679L56.5339 58.164V58.1601C59.2722 58.1953 61.8933 59.2773 63.8659 61.1796C66.6354 63.8671 69.737 66.1913 73.0925 68.0976C73.1589 68.1289 79.6198 71.7031 78.2448 77.4453L78.2489 77.4414Z"
        fill="black" />
    <path
        d="M33.9682 61.6285C34.1831 61.6285 34.4018 61.6168 34.6167 61.5933C38.1909 61.2105 40.1362 56.9292 39.5698 50.6913C39.3354 48.0507 37.9917 45.6327 35.8784 44.0351C34.4175 42.8476 32.5268 42.3242 30.6636 42.5937C28.9644 42.9101 27.4839 43.9531 26.6167 45.4492C25.2886 47.668 25.1167 50.8476 26.1401 54.168C26.1987 54.3594 26.2651 54.543 26.3276 54.7266H21.9838V37.8866C21.9838 37.4335 21.8041 36.996 21.4838 36.6757C21.1596 36.3515 20.726 36.1718 20.269 36.1718H3.43301V21.9838H20.269C21.2182 21.9838 21.9838 21.2143 21.9838 20.269V3.429H36.1718V20.269C36.1718 21.2143 36.9413 21.9838 37.8906 21.9838H54.7266V36.1718H54.6446C54.1172 34.5351 53.1134 33.0898 51.7618 32.0273C50.1563 30.8242 48.129 30.3398 46.1563 30.6875C44.5352 30.9688 43.1133 31.9219 42.2383 33.3164C40.6719 35.6992 40.3281 39.3437 41.293 43.3204C42.5977 48.6915 45.6524 52.0704 49.1563 52.0665C49.2891 52.0665 49.4219 52.0626 49.5586 52.0509C50.8711 51.9181 52.0742 51.2462 52.8789 50.1993C54.8008 47.9024 55.8125 43.6641 55.3945 39.6483C55.3945 39.6326 55.3906 39.617 55.3867 39.6014H56.4414C57.3906 39.6014 58.1602 38.8358 58.1602 37.8866V20.2696C58.1602 19.3204 57.3907 18.5508 56.4414 18.5508H39.6054V1.7148C39.6054 0.765579 38.8359 0 37.8906 0H20.2696C19.3243 0 18.5548 0.765619 18.5548 1.7148V18.5508H1.7148C0.76949 18.5508 0 19.3203 0 20.2696V37.8866C0 38.8358 0.76953 39.6014 1.7148 39.6014H18.5548V56.4414C18.5548 57.3906 19.3243 58.1562 20.2696 58.1562H28.0665C29.3438 60.2148 31.5503 61.5113 33.9682 61.6285ZM50.2452 47.9955C50.0187 48.3158 49.6866 48.5384 49.3077 48.6283C47.7413 48.7338 45.6397 46.6791 44.628 42.5072C43.9093 39.5424 44.0929 36.7416 45.1085 35.1947L45.1046 35.1986C45.4601 34.6009 46.0538 34.1908 46.7374 34.0658C46.964 34.0306 47.1905 34.0111 47.421 34.0111C48.2374 34.0033 49.0343 34.2689 49.6866 34.7611C50.7257 35.6595 51.4249 36.8822 51.6749 38.2299C51.6788 38.2416 51.6827 38.2494 51.6827 38.2612V38.2572C51.8194 38.8315 51.921 39.4174 51.9796 40.0033C52.2921 43.0072 51.546 46.4408 50.2452 47.9955ZM29.5612 47.2103C29.9284 46.5502 30.5768 46.0931 31.3229 45.9603C31.4323 45.9408 31.5456 45.9291 31.655 45.933C32.4479 45.9838 33.2019 46.2806 33.8191 46.7806C35.155 47.7923 36.0027 49.3275 36.1511 50.9994C36.4948 54.808 35.6433 58.0306 34.2488 58.1791C32.3777 58.3744 30.3972 56.3119 29.4207 53.1518C28.6902 50.7963 28.7409 48.5736 29.5612 47.2103Z"
        fill="black" />
    <path
        d="M89.651 49.1955C89.151 47.5393 87.9479 46.1838 86.3658 45.4885C84.6158 44.7971 82.6549 44.8713 80.9596 45.6956C78.5338 46.7659 76.6744 48.8089 75.8424 51.3245C73.8619 57.2659 74.7721 61.8795 78.1627 63.0745C78.8033 63.301 79.4791 63.4182 80.1588 63.4182C83.0416 63.4182 86.0065 61.3752 88.1119 57.7893C89.8736 54.7932 90.4361 51.6604 89.651 49.1955ZM85.1549 56.051C83.4791 58.9026 81.069 60.4612 79.2994 59.8401C77.9752 59.3753 77.8853 56.0432 79.0963 52.4143V52.4104C79.6236 50.8166 80.7994 49.5198 82.3385 48.8362C82.8776 48.594 83.4635 48.4612 84.0573 48.4456C84.362 48.4378 84.6706 48.4964 84.9518 48.6136C85.6471 48.9144 86.1745 49.5081 86.3815 50.2347C86.862 51.7503 86.405 53.926 85.1549 56.051Z"
        fill="black" />
    <path
        d="M65.882 52.1794C66.2101 52.2419 66.5422 52.2731 66.8742 52.2731C70.1437 52.2731 73.2804 49.3083 75.0578 44.4098C76.4523 40.566 76.5109 36.9059 75.218 34.3628H75.2219C74.507 32.8823 73.1946 31.7769 71.6164 31.3198C69.6945 30.7573 67.6242 31.019 65.8976 32.0347C63.6945 33.3511 62.1984 35.7652 61.4484 39.2105C60.5929 43.1558 61.132 47.48 62.7882 49.9725C63.4718 51.1053 64.5929 51.9021 65.882 52.1794ZM64.8 39.9414C65.3313 37.4961 66.3195 35.7812 67.6555 34.9844C68.2297 34.6367 68.886 34.457 69.5539 34.4609C69.9289 34.4609 70.3039 34.5117 70.6633 34.6172C71.3313 34.8125 71.8781 35.2891 72.1594 35.9219C72.9993 37.5703 72.8743 40.3711 71.8313 43.2383C70.3704 47.2695 68.0461 49.0938 66.5071 48.8047C66.1399 48.6758 65.8352 48.4141 65.6477 48.0742C64.5266 46.3867 64.1594 42.8906 64.8 39.9414Z"
        fill="black" />
</svg>