<svg width="70" height="88" viewBox="0 0 70 88" fill="none" xmlns="http://www.w3.org/2000/svg">
    <path
        d="M61.5122 62.797C61.3872 60.6251 61.1411 58.4611 60.7778 56.3165C60.856 54.8517 59.5005 52.7735 57.684 53.2227C55.0278 53.3985 53.9418 59.9766 51.7465 62.2969H51.7504C51.1879 63.0039 50.5785 63.668 49.9223 64.2813C49.8676 64.2657 49.8169 64.2461 49.7661 64.2188C45.0356 62.5508 40.0317 61.8047 35.0201 62.0157C29.9146 61.7852 24.8171 62.5548 20.0081 64.2813C18.1643 62.6368 16.7581 60.5586 15.9143 58.2383C14.8049 55.0664 13.6643 53.5195 12.2424 53.2227C10.4299 52.7774 9.05489 54.8321 9.13299 56.3165H9.13689C8.78142 58.461 8.53533 60.6251 8.40251 62.797C8.16813 66.254 7.86735 69.7658 9.27751 73.309C14.8986 84.469 22.6835 88.067 36.1605 87.727C44.2503 87.727 50.0315 85.852 54.2655 81.8989C59.9022 76.7895 62.7075 71.102 61.5122 62.797ZM27.7702 77.481C25.5788 77.438 24.0046 76.8404 23.8483 74.3404C23.8483 70.606 28.7233 67.7935 35.1883 67.7935C41.6571 67.7935 46.5283 70.606 46.5283 74.3404C46.126 78.0592 43.3056 77.5748 39.6416 77.2623H39.6455C35.6885 76.9185 31.7116 76.9927 27.7702 77.481Z"
        fill="white" />
    <path
        d="M39.957 74.1521C41.0898 74.3318 42.2461 74.3787 43.3906 74.2927C43.3281 72.9021 40.1562 70.9177 35.1914 70.9177C30.2226 70.9177 27.0391 72.9021 26.9922 74.2927H26.9883C28.1367 74.3787 29.2891 74.3318 30.4258 74.1521C33.5938 73.7849 36.7891 73.7849 39.957 74.1521Z"
        fill="white" />
    <path
        d="M68.93 28.512C68.6448 25.3362 66.93 22.4651 64.2777 20.6995C65.0668 19.1409 66.0941 17.7112 67.3246 16.469L67.9965 15.9222H67.9926C68.391 15.5784 68.5941 15.0589 68.5316 14.5394C68.473 14.0159 68.1605 13.5589 67.6957 13.3128C66.0316 12.4612 64.2777 11.8011 62.4652 11.344C62.6488 10.6057 62.2738 9.83615 61.5746 9.53145C59.1293 8.43375 56.5043 7.79705 53.8246 7.65645C54.5863 7.42989 55.0941 6.71504 55.059 5.92205C55.0082 5.29705 54.5824 4.75795 53.9809 4.56655C50.7153 3.60171 47.2817 3.34385 43.9069 3.81655C44.6881 0.211052 34.7233 2.14855 33.3329 2.30095C33.4852 1.80876 33.3876 1.27365 33.0751 0.867352C32.7586 0.461102 32.2704 0.230632 31.7548 0.254072C31.1923 0.285322 18.0868 1.17595 11.9928 8.56267H11.9967C9.85606 11.1174 8.77006 14.3908 8.96546 17.7189C3.82486 18.7697 0.371661 23.6212 1.05926 28.8239C1.46551 34.4958 5.62176 42.4759 6.90306 44.8039C8.03976 47.0734 11.8679 46.8664 12.4656 44.382C12.7038 43.1398 13.3015 40.6476 13.3874 40.382C14.3991 36.1789 18.3288 33.5968 19.5905 29.542C24.528 31.0264 38.3205 34.3858 51.6135 30.5264H51.6096C51.7346 30.8467 51.8792 31.1592 52.0471 31.4639C53.9494 34.5264 56.5315 37.1436 57.5159 40.6631C57.6136 40.9756 58.2425 43.5576 58.4691 44.8193H58.4651C58.848 45.9599 59.8674 46.7724 61.0628 46.8935C62.262 47.0146 63.4222 46.4208 64.0276 45.3818C66.5198 40.9599 69.5588 34.1708 68.9299 28.5108L68.93 28.512Z"
        fill="white" />
</svg>