<svg width="83" height="83" viewBox="0 0 83 83" fill="none" xmlns="http://www.w3.org/2000/svg">
    <path
        d="M37.3637 4.0976V4.10151C37.9106 5.62881 38.2114 6.97261 38.1293 8.12101C37.977 10.1796 36.4184 11.9179 34.5668 12.8554C33.1293 13.582 31.6801 13.746 28.5785 14.0351H28.5668C27.934 14.0937 27.2074 14.1601 26.4457 14.2421H26.4301C22.4731 14.6523 14.9731 15.496 12.0671 19.5976C9.00846 23.9179 11.4382 30.5426 15.1765 33.1876C15.2351 33.2306 15.3366 33.297 15.3366 33.297C17.7155 34.9025 20.6061 35.0118 22.6686 35.1251H22.6803C24.3951 35.215 25.5241 35.3009 26.3405 35.6603L26.3484 35.6642C27.4734 36.1525 28.2507 37.297 29.4578 39.2697C30.1023 40.3166 30.864 41.5744 31.8445 42.672C32.9187 43.8751 34.2117 44.8361 35.2625 45.6251C36.2898 46.3946 37.0672 46.9884 37.6258 47.6095C37.9422 47.965 38.1297 48.2696 38.239 48.5548C38.8093 50.0548 37.7742 52.797 36.1765 53.8087L36.1648 53.8165C35.6101 54.1681 34.9578 54.3126 33.8015 54.5353C32.5788 54.7696 30.9187 55.0704 29.2312 56.1408C28.8211 56.4025 28.4578 56.6642 28.0554 57.0158L28.0124 57.0548C26.6101 58.2775 25.2702 60.1212 24.1452 61.6525C23.0046 63.2072 22.0905 64.4337 21.3093 65.1173C21.1414 65.2618 21.0203 65.3478 20.9383 65.3986C20.2625 64.8634 19.0985 62.2775 18.8797 59.3009C18.782 58.004 18.907 56.8868 19.0437 55.7032L19.0476 55.6758C19.157 54.7071 19.2859 53.625 19.2039 52.4922C19.1492 51.7461 19.0007 50.9766 18.6961 50.1797C18.0164 48.3906 16.5789 46.6016 15.493 45.2266C14.4891 43.9571 13.7742 43.0313 13.4539 42.3204C13.2117 41.7853 13.1961 41.3634 13.2078 40.4181C13.2234 39.1681 13.239 37.5275 12.2703 35.1447C11.3172 32.7931 9.36007 29.6486 7.05547 26.2541C12.3485 14.2311 23.7705 5.53513 37.3605 4.09813L37.3637 4.0976ZM64.3247 28.1636V28.1675C64.3364 28.1636 64.3481 28.1636 64.3598 28.1636C64.4497 28.1636 64.5434 28.1675 64.6294 28.1753H64.6333C65.477 28.2456 66.3325 28.5894 67.731 29.1714L67.7466 29.1792C69.606 29.9566 72.0161 30.9761 75.5083 31.269V31.2729C76.1255 31.3237 76.77 31.3511 77.438 31.3628C78.313 34.5347 78.7818 37.8784 78.7818 41.3355C78.7818 52.5855 73.8209 62.6755 65.9658 69.5425C65.9619 68.5659 66.0361 67.7144 66.208 66.9995V66.9956C66.2744 66.7221 66.3564 66.4721 66.4502 66.2378C66.8174 65.3315 67.3525 64.644 68.1338 63.6792L68.1572 63.6518C68.9424 62.6752 69.9384 61.4643 70.6181 59.7651L70.6455 59.7026C71.9853 56.3549 72.2939 50.2964 68.3955 47.3396L68.3837 47.3318C68.083 47.1013 67.7666 46.906 67.4423 46.7302C65.5946 45.7302 63.2079 45.406 61.3173 45.1286C59.2001 44.8239 57.5946 44.5739 56.4618 43.9606L56.4384 43.9489C54.4306 42.8591 53.4228 39.9958 55.0907 36.2731C56.829 32.3786 61.0595 28.6754 63.7391 28.2145C63.9422 28.1794 64.1333 28.1636 64.3247 28.1636ZM41.3867 3.8906H41.3906C57.1286 3.91013 70.5936 13.6445 76.1096 27.4176C76.0237 27.4098 75.9377 27.4059 75.8557 27.3981H75.8401C72.9924 27.152 71.1174 26.3786 69.3089 25.6208L69.2307 25.5895C67.969 25.0583 66.5315 24.4372 64.9651 24.3043H64.9573C64.7581 24.2848 64.5354 24.2731 64.3284 24.2731H64.3245V24.277H64.2972C63.8948 24.277 63.4964 24.3082 63.0824 24.3824C58.6918 25.1364 53.6019 30.0738 51.5394 34.6834C49.4027 39.4607 50.0785 44.9294 54.5589 47.3514L54.5901 47.3671C56.4534 48.3749 58.8518 48.703 60.7542 48.9804C62.8636 49.2851 64.4769 49.5468 65.594 50.1523C65.762 50.2421 65.8987 50.328 66.0237 50.4257L66.0354 50.4335C67.7815 51.7538 68.137 55.5077 67.012 58.3163L66.9924 58.3632C66.5549 59.4491 65.9378 60.207 65.1292 61.207L65.1096 61.2304C64.3674 62.1484 63.4534 63.2616 62.8401 64.789C62.68 65.1953 62.5393 65.6211 62.43 66.0781C62.0042 67.8359 62.0159 70.0429 62.2385 72.4101V72.414C56.2658 76.4335 49.0745 78.7812 41.3365 78.7812C20.6525 78.7812 3.88755 62.0152 3.88755 41.3362C3.88755 37.6721 4.41489 34.1331 5.39535 30.7892L5.39925 30.7971C6.88365 33.0783 8.04765 35.0744 8.66875 36.6057C9.34453 38.2815 9.33282 39.3127 9.3172 40.3752C9.30938 41.3009 9.27423 42.5158 9.90704 43.9221C10.4734 45.1682 11.5554 46.5198 12.4422 47.6409C13.6531 49.1682 14.6414 50.4534 15.0633 51.5589C15.2157 51.9612 15.2938 52.3557 15.3251 52.7777C15.3758 53.4847 15.3016 54.1879 15.1844 55.2269L15.1805 55.2581C15.0438 56.4339 14.8758 57.8831 15.0008 59.5862C15.2157 62.4964 16.4774 67.6057 19.3836 68.9846C19.8407 69.2034 20.3563 69.3362 20.9188 69.3362C21.1688 69.3362 21.4032 69.3127 21.6532 69.2619L21.6649 69.258C21.7977 69.2268 21.9227 69.1916 22.0438 69.1526C22.7626 68.9143 23.3758 68.4768 23.868 68.0471C25.0477 67.0159 26.243 65.3674 27.2821 63.9533C28.493 62.3049 29.536 60.8869 30.5438 60.008L30.5712 59.9845C30.8251 59.7619 31.0712 59.5783 31.3134 59.4259C32.3056 58.797 33.2822 58.5939 34.5322 58.3556C35.5634 58.1564 36.9502 57.926 38.2314 57.1095L38.2509 57.0978C41.0868 55.297 43.2275 50.7306 41.8759 47.172C41.5517 46.3283 41.0595 45.6212 40.5243 45.0197C39.661 44.051 38.5438 43.2228 37.5946 42.5119C36.493 41.6838 35.5204 40.9494 34.7469 40.0822C34.0399 39.2893 33.45 38.34 32.7742 37.2384C31.7351 35.5431 30.4226 33.1993 27.9656 32.1251L27.907 32.0978C26.3132 31.4025 24.3953 31.3243 22.8953 31.2423L22.8328 31.2345C20.5398 31.1095 18.8445 30.965 17.5047 30.0665C17.4578 30.0352 17.4227 30.0157 17.4227 30.0157C14.8602 28.1993 13.7977 23.8829 15.243 21.8438C16.8992 19.5 22.1375 18.5938 26.821 18.1133L26.8327 18.1094C27.5749 18.0352 28.2702 17.9688 28.9069 17.9102L28.9303 17.9063C31.8444 17.6328 34.0983 17.4492 36.3209 16.3243C38.9147 15.0157 41.7232 12.2852 42.0084 8.40238C42.11 6.97268 41.8437 5.4375 41.3867 3.8906ZM41.3359 0V0.0039053L41.332 0C18.504 0 0 18.508 0 41.336C0 64.164 18.504 82.672 41.336 82.672C64.164 82.672 82.672 64.164 82.672 41.336C82.672 18.504 64.1639 0 41.3359 0Z"
        fill="#eab308" />
</svg>